<svg xmlns="http://www.w3.org/2000/svg" width="74" height="74" viewBox="0 0 74 74">
  <g id="vuesax_linear_mobile" data-name="vuesax/linear/mobile" transform="translate(-155.139 -365.551)">
    <g id="mobile" transform="translate(179.646 368.277)">
      <g id="vuesax_linear_like-tag" data-name="vuesax/linear/like-tag" transform="translate(-2.832 10.274)">
        <g id="like-tag" transform="translate(0 0)">
          <g id="Group" transform="translate(10.132 17.406)">
            <path id="Vector" d="M0,8.46l1.672,1.3A1.662,1.662,0,0,0,2.7,10.08H4.757A1.639,1.639,0,0,0,6.273,8.948l1.3-3.936a1.011,1.011,0,0,0-1.028-1.4H4.383a.545.545,0,0,1-.54-.644l.27-1.724a1.057,1.057,0,0,0-1.89-.81L.01,3.723" transform="translate(2.752 0)" fill="none" stroke="#fff" stroke-width="1.5"/>
            <path id="Vector-2" data-name="Vector" d="M0,6.315V1.028C0,.27.322,0,1.08,0h.54C2.378,0,2.7.27,2.7,1.028V6.315c0,.758-.322,1.028-1.08,1.028H1.08C.322,7.343,0,7.073,0,6.315Z" transform="translate(0 2.145)" fill="none" stroke="#fff" stroke-linecap="round" stroke-linejoin="round" stroke-width="1.5"/>
          </g>
          <path id="Vector-3" data-name="Vector" d="M30.65,9.578V38.422c0,7.662-1.916,9.578-9.578,9.578H9.578C1.916,48,0,46.084,0,38.422V9.578C0,1.916,1.916,0,9.578,0H21.072C28.734,0,30.65,1.916,30.65,9.578Z" transform="translate(0 0)" fill="none" stroke="#fff" stroke-linecap="round" stroke-linejoin="round" stroke-width="1.5"/>
          <path id="Vector-4" data-name="Vector" d="M7.662,0H0" transform="translate(11.495 3.421)" fill="none" stroke="#fff" stroke-linecap="round" stroke-linejoin="round" stroke-width="1.5"/>
          <path id="Vector-5" data-name="Vector" d="M15.579,17.5H14.79a3.1,3.1,0,0,0-2.2.9L10.812,20.16a2.1,2.1,0,0,1-2.939,0L6.1,18.4a3.121,3.121,0,0,0-2.2-.9H3.116A3.1,3.1,0,0,1,0,14.416V3.085A3.1,3.1,0,0,1,3.116,0H15.579A3.1,3.1,0,0,1,18.7,3.085V14.416A3.105,3.105,0,0,1,15.579,17.5Z" transform="translate(5.978 13.62)" fill="none" stroke="#fff" stroke-linecap="round" stroke-linejoin="round" stroke-width="1.5"/>
        </g>
      </g>
    </g>
    <g id="emoji-happy" transform="translate(150.139 360.551)">
      <path id="Vector-6" data-name="Vector" d="M24.5,70h21C63,70,70,63,70,45.5v-21C70,7,63,0,45.5,0h-21C7,0,0,7,0,24.5v21C0,63,7,70,24.5,70Z" transform="translate(7 7)" fill="none" stroke="#fff" stroke-linecap="round" stroke-linejoin="round" stroke-width="4"/>
    </g>
  </g>
</svg>
