<svg xmlns="http://www.w3.org/2000/svg" width="74" height="74" viewBox="0 0 74 74">
  <g id="vuesax_linear_search-status" data-name="vuesax/linear/search-status" transform="translate(-265.699 -183)">
    <g id="search-status" transform="translate(280.001 196)">
      <path id="Vector" d="M31.711,15.856A15.856,15.856,0,1,1,15.856,0" transform="translate(1 12.759)" fill="none" stroke="#fff" stroke-linecap="round" stroke-linejoin="round" stroke-width="2"/>
      <path id="Vector-2" data-name="Vector" d="M.177,3.471c.934,2.819,3.065,3.1,4.7.634,1.5-2.255.511-4.1-2.2-4.1A2.476,2.476,0,0,0,.177,3.471Z" transform="translate(30.65 42.215)" fill="none" stroke="#fff" stroke-linecap="round" stroke-linejoin="round" stroke-width="2"/>
      <g id="vuesax_linear_status-up" data-name="vuesax/linear/status-up" transform="translate(22.215 0)">
        <g id="status-up" transform="translate(0)">
          <path id="Vector-3" data-name="Vector" d="M0,2.3V0" transform="translate(5.412 15.615)" fill="none" stroke="#fff" stroke-linecap="round" stroke-width="2"/>
          <path id="Vector-4" data-name="Vector" d="M0,4.591V0" transform="translate(11.09 13.32)" fill="none" stroke="#fff" stroke-linecap="round" stroke-width="2"/>
          <path id="Vector-5" data-name="Vector" d="M0,6.9V0" transform="translate(16.769 11.013)" fill="none" stroke="#fff" stroke-linecap="round" stroke-width="2"/>
          <path id="Vector-6" data-name="Vector" d="M11.357,0l-.51.6A20.941,20.941,0,0,1,0,7.3" transform="translate(5.412 4.27)" fill="none" stroke="#fff" stroke-linecap="round" stroke-width="2"/>
          <path id="Vector-7" data-name="Vector" d="M0,0H3.25V3.238" transform="translate(13.519 4.27)" fill="none" stroke="#fff" stroke-linecap="round" stroke-linejoin="round" stroke-width="2"/>
          <path id="Vector-8" data-name="Vector" d="M7.763,22.181h6.654c5.545,0,7.763-2.218,7.763-7.763V7.763C22.181,2.218,19.963,0,14.418,0H7.763C2.218,0,0,2.218,0,7.763v6.654C0,19.963,2.218,22.181,7.763,22.181Z" transform="translate(0 0)" fill="none" stroke="#fff" stroke-linecap="round" stroke-linejoin="round" stroke-width="2"/>
        </g>
      </g>
    </g>
    <g id="emoji-happy" transform="translate(260.699 178)">
      <path id="Vector-9" data-name="Vector" d="M24.5,70h21C63,70,70,63,70,45.5v-21C70,7,63,0,45.5,0h-21C7,0,0,7,0,24.5v21C0,63,7,70,24.5,70Z" transform="translate(7 7)" fill="none" stroke="#fff" stroke-linecap="round" stroke-linejoin="round" stroke-width="4"/>
    </g>
  </g>
</svg>
