<svg xmlns="http://www.w3.org/2000/svg" width="74" height="74" viewBox="0 0 74 74">
  <g id="vuesax_linear_emoji-happy" data-name="vuesax/linear/emoji-happy" transform="translate(-433 -385)">
    <g id="emoji-happy" transform="translate(428 380)">
      <path id="Vector" d="M24.5,70h21C63,70,70,63,70,45.5v-21C70,7,63,0,45.5,0h-21C7,0,0,7,0,24.5v21C0,63,7,70,24.5,70Z" transform="translate(7 7)" fill="none" stroke="#fff" stroke-linecap="round" stroke-linejoin="round" stroke-width="4"/>
    </g>
    <g id="vuesax_linear_cup" data-name="vuesax/linear/cup" transform="translate(76 12)">
      <g id="cup" transform="translate(370 386)">
        <path id="Vector-2" data-name="Vector" d="M0,0V4.2" transform="translate(24.3 33)" fill="none" stroke="#fff" stroke-linecap="round" stroke-linejoin="round" stroke-width="2"/>
        <path id="Vector-3" data-name="Vector" d="M0,6H20V4a4.012,4.012,0,0,0-4-4H4A4.012,4.012,0,0,0,0,4V6Z" transform="translate(14.3 38)" fill="none" stroke="#fff" stroke-width="2"/>
        <path id="Vector-4" data-name="Vector" d="M0,0H24" transform="translate(12.3 44)" fill="none" stroke="#fff" stroke-linecap="round" stroke-linejoin="round" stroke-width="2"/>
        <path id="Vector-5" data-name="Vector" d="M14,28A13.99,13.99,0,0,1,0,14V8A8,8,0,0,1,8,0H20a8,8,0,0,1,8,8v6A13.99,13.99,0,0,1,14,28Z" transform="translate(10 4)" fill="none" stroke="#fff" stroke-linecap="round" stroke-linejoin="round" stroke-width="2"/>
        <path id="Vector-6" data-name="Vector" d="M6.86,14.6A9.718,9.718,0,0,1,3,12.2,10.667,10.667,0,0,1,0,5,4.951,4.951,0,0,1,5,0H6.3a7.511,7.511,0,0,0-.6,3V9A14.094,14.094,0,0,0,6.86,14.6Z" transform="translate(4.08 8.7)" fill="none" stroke="#fff" stroke-linecap="round" stroke-linejoin="round" stroke-width="2"/>
        <path id="Vector-7" data-name="Vector" d="M0,14.6a9.718,9.718,0,0,0,3.86-2.4,10.667,10.667,0,0,0,3-7.2,4.951,4.951,0,0,0-5-5H.56a7.511,7.511,0,0,1,.6,3V9A14.094,14.094,0,0,1,0,14.6Z" transform="translate(37.06 8.7)" fill="none" stroke="#fff" stroke-linecap="round" stroke-linejoin="round" stroke-width="2"/>
        <path id="Vector-8" data-name="Vector" d="M0,0H48V48H0Z" fill="none" opacity="0"/>
      </g>
    </g>
  </g>
</svg>
